<svg version="1.1" id="Layer_1" xmlns="http://www.w3.org/2000/svg" xmlns:xlink="http://www.w3.org/1999/xlink" x="0px" y="0px"
	 width="100%" viewBox="0 0 1024 1024" enable-background="new 0 0 1024 1024" xml:space="preserve">
<path fill="#000000" opacity="1.000000" stroke="none" 
	d="
M681.999329,372.999634 
	C712.944214,403.024963 731.752136,439.342102 741.289124,480.728119 
	C746.409180,502.946320 747.316040,525.398621 745.506897,548.111206 
	C743.052612,578.923462 735.086304,608.079468 719.993652,635.047974 
	C700.828857,669.293091 674.477173,696.687256 640.659668,716.903687 
	C613.763550,732.982361 584.582092,742.442749 553.742188,746.024597 
	C514.217712,750.615173 475.909119,745.277039 439.010864,729.494446 
	C392.622314,709.652527 357.829559,677.155823 333.154419,633.749817 
	C318.449585,607.882507 310.228668,579.806702 307.447601,549.938416 
	C303.539185,507.962891 311.255920,468.310364 329.392273,430.651245 
	C341.977051,404.519653 360.054962,382.440643 382.084961,363.501495 
	C407.403687,341.735016 436.029938,326.118958 468.214020,317.578888 
	C492.764130,311.064545 517.813538,308.170441 543.372375,310.489410 
	C586.713257,314.421844 625.957947,328.934265 660.911072,354.856018 
	C668.264221,360.309235 675.310913,366.193909 681.999329,372.999634 
z"/>
</svg>